<svg width="895" height="895" viewBox="0 0 895 895" fill="none" xmlns="http://www.w3.org/2000/svg"><g clip-path="url(#a)"><path fill="#fff" d="M0 0h894.667v894.667H0z"/><path fill="#fff" d="M0 0h895v895H0z"/><path d="M0 447.333v447.334h448V0H0v447.333Zm407.733-268.266.267 47.6-2.933.533c-1.734.267-8.267 1.467-14.534 2.667C346 238 294.267 268.267 265.867 302.8c-47.6 57.867-64.4 127.2-47.6 197.867 16.133 68.133 66 126.8 130 153.2C364 660.4 383.2 666 397.467 668.4l9.866 1.733.4 46.534c.134 25.6-.133 46.933-.666 47.466-.667.534-8.267-.133-16.934-1.6-65.6-10.666-122.8-38.666-169.866-83.2-77.2-73.066-113.2-181.2-95.067-285.466 17.467-100.8 82-187.067 172.8-231.2 23.867-11.6 40.8-17.867 63.333-23.467 17.067-4.267 41.734-8.667 44.667-8 .8.267 1.467 17.6 1.733 47.867Z" fill="#F00505"/><path d="M895 447.333v447.334H447V0h448v447.333ZM487.267 179.067l-.267 47.6 2.933.533c1.734.267 8.267 1.467 14.534 2.667C549 238 600.733 268.267 629.133 302.8c47.6 57.867 64.4 127.2 47.6 197.867-16.133 68.133-66 126.8-130 153.2C531 660.4 511.8 666 497.533 668.4l-9.866 1.733-.4 46.534c-.134 25.6.133 46.933.666 47.466.667.534 8.267-.133 16.934-1.6 65.6-10.666 122.8-38.666 169.866-83.2 77.2-73.066 113.2-181.2 95.067-285.466-17.467-100.8-82-187.067-172.8-231.2-23.867-11.6-40.8-17.867-63.333-23.467-17.067-4.267-41.734-8.667-44.667-8-.8.267-1.467 17.6-1.733 47.867Z" fill="#0598F6"/></g><defs><clipPath id="a"><path fill="#fff" d="M0 0h894.667v894.667H0z"/></clipPath></defs></svg>